<svg id="Component_209_1" data-name="Component 209 – 1" xmlns="http://www.w3.org/2000/svg"  viewBox="0 0 35.758 36.775">
  <path id="Path_4514" data-name="Path 4514" d="M33.946,20.388c0-.423-.018-.827-.055-1.25l3.42-2.593a1.85,1.85,0,0,0,.478-2.39L34.351,8.215a1.815,1.815,0,0,0-2.3-.772L28.1,9.116a13.951,13.951,0,0,0-2.151-1.25l-.533-4.248A1.844,1.844,0,0,0,23.594,2H16.735A1.849,1.849,0,0,0,14.9,3.618l-.533,4.248a13.95,13.95,0,0,0-2.151,1.25L8.259,7.443a1.815,1.815,0,0,0-2.3.772L2.522,14.173A1.854,1.854,0,0,0,3,16.563l3.42,2.593c-.037.4-.055.809-.055,1.232s.018.827.055,1.25L3,24.231a1.85,1.85,0,0,0-.478,2.39L5.96,32.56a1.815,1.815,0,0,0,2.3.772l3.953-1.673a13.95,13.95,0,0,0,2.151,1.25l.533,4.248a1.844,1.844,0,0,0,1.82,1.618h6.859a1.844,1.844,0,0,0,1.82-1.618l.533-4.248a13.95,13.95,0,0,0,2.151-1.25l3.953,1.673a1.815,1.815,0,0,0,2.3-.772l3.438-5.939a1.854,1.854,0,0,0-.478-2.39l-3.42-2.593A9.506,9.506,0,0,0,33.946,20.388ZM20.229,26.823a6.436,6.436,0,1,1,6.436-6.436A6.443,6.443,0,0,1,20.229,26.823Z" transform="translate(-2.277 -2)" />
</svg>