<svg id="Component_212_1" data-name="Component 212 – 1" xmlns="http://www.w3.org/2000/svg" width="25" height="25" viewBox="0 0 30.739 35.856">
  <path id="Path_4527" data-name="Path 4527" d="M21.784,1h-6.83a1.707,1.707,0,1,0,0,3.415h6.83a1.707,1.707,0,1,0,0-3.415ZM18.369,23.2a1.712,1.712,0,0,0,1.707-1.707v-6.83a1.707,1.707,0,0,0-3.415,0v6.83A1.712,1.712,0,0,0,18.369,23.2Zm12-11.286,1.281-1.281a1.7,1.7,0,0,0,0-2.39l-.017-.017a1.7,1.7,0,0,0-2.39,0L27.965,9.5a15.3,15.3,0,0,0-9.6-3.381A15.538,15.538,0,0,0,3,21.079a15.37,15.37,0,1,0,27.37-9.169Zm-12,21.531A11.952,11.952,0,1,1,30.321,21.489,11.943,11.943,0,0,1,18.369,33.441Z" transform="translate(-2.997 -1)" fill="#1f2a44"/>
</svg>