<svg id="Group_3003" data-name="Group 3003" xmlns="http://www.w3.org/2000/svg" width="34.437" height="17.218" viewBox="0 0 34.437 17.218">
  <path id="Path_5266" data-name="Path 5266" d="M17.218,15.685A15.225,15.225,0,0,1,23.3,16.977a4.282,4.282,0,0,1,2.525,3.917v.89a1.439,1.439,0,0,1-1.435,1.435H10.044a1.439,1.439,0,0,1-1.435-1.435v-.875a4.252,4.252,0,0,1,2.525-3.917A14.981,14.981,0,0,1,17.218,15.685Zm-11.479.359a2.87,2.87,0,1,0-2.87-2.87A2.878,2.878,0,0,0,5.739,16.044Zm1.621,1.578a10.019,10.019,0,0,0-1.621-.143,9.973,9.973,0,0,0-3.989.832A2.885,2.885,0,0,0,0,20.966v.818a1.439,1.439,0,0,0,1.435,1.435H6.457v-2.31A6.455,6.455,0,0,1,7.361,17.622ZM28.7,16.044a2.87,2.87,0,1,0-2.87-2.87A2.878,2.878,0,0,0,28.7,16.044Zm5.739,4.922a2.885,2.885,0,0,0-1.751-2.655,9.755,9.755,0,0,0-5.61-.689,6.455,6.455,0,0,1,.9,3.286v2.31H33a1.439,1.439,0,0,0,1.435-1.435ZM17.218,6a4.3,4.3,0,1,1-4.3,4.3A4.3,4.3,0,0,1,17.218,6Z" transform="translate(0 -6)" />
</svg>