<svg xmlns="http://www.w3.org/2000/svg" width="22.958" height="28.697" viewBox="0 0 22.958 28.697">
  <path id="Path_5276" data-name="Path 5276" d="M17.158,2H6.87A2.878,2.878,0,0,0,4,4.87V27.828A2.878,2.878,0,0,0,6.87,30.7H24.088a2.878,2.878,0,0,0,2.87-2.87V11.8a2.821,2.821,0,0,0-.847-2.023l-6.93-6.93A2.821,2.821,0,0,0,17.158,2ZM15.479,13.479a2.87,2.87,0,1,1-2.87,2.87A2.878,2.878,0,0,1,15.479,13.479Zm5.739,11.479H9.739V24.14a2.885,2.885,0,0,1,1.751-2.655,9.976,9.976,0,0,1,7.978,0,2.885,2.885,0,0,1,1.751,2.655Z" transform="translate(-4 -2)"/>
</svg>