<svg xmlns="http://www.w3.org/2000/svg" width="25.828" height="25.828" viewBox="0 0 25.828 25.828">
  <path id="Path_5260" data-name="Path 5260" d="M4.435,17.349h8.609a1.439,1.439,0,0,0,1.435-1.435V4.435A1.439,1.439,0,0,0,13.044,3H4.435A1.439,1.439,0,0,0,3,4.435V15.914A1.439,1.439,0,0,0,4.435,17.349Zm0,11.479h8.609a1.439,1.439,0,0,0,1.435-1.435V21.653a1.439,1.439,0,0,0-1.435-1.435H4.435A1.439,1.439,0,0,0,3,21.653v5.739A1.439,1.439,0,0,0,4.435,28.828Zm14.349,0h8.609a1.439,1.439,0,0,0,1.435-1.435V15.914a1.439,1.439,0,0,0-1.435-1.435H18.784a1.439,1.439,0,0,0-1.435,1.435V27.393A1.439,1.439,0,0,0,18.784,28.828ZM17.349,4.435v5.739a1.439,1.439,0,0,0,1.435,1.435h8.609a1.439,1.439,0,0,0,1.435-1.435V4.435A1.439,1.439,0,0,0,27.393,3H18.784A1.439,1.439,0,0,0,17.349,4.435Z" transform="translate(-3 -3)" fill="#fff"/>
</svg>