<svg xmlns="http://www.w3.org/2000/svg" width="28.697" height="25.828" viewBox="0 0 28.697 25.828">
  <g id="Group_3043" data-name="Group 3043" transform="translate(458 -431)">
    <g id="Group_3002" data-name="Group 3002" transform="translate(-458 431)">
      <path id="Path_5261" data-name="Path 5261" d="M8.457,28.828H3.435A1.439,1.439,0,0,1,2,27.393V13.044a1.439,1.439,0,0,1,1.435-1.435H8.457a1.439,1.439,0,0,1,1.435,1.435V27.393A1.439,1.439,0,0,1,8.457,28.828ZM18.86,3H13.838A1.439,1.439,0,0,0,12.4,4.435V27.393a1.439,1.439,0,0,0,1.435,1.435H18.86a1.439,1.439,0,0,0,1.435-1.435V4.435A1.439,1.439,0,0,0,18.86,3Zm10.4,11.479H24.24a1.439,1.439,0,0,0-1.435,1.435V27.393a1.439,1.439,0,0,0,1.435,1.435h5.022A1.439,1.439,0,0,0,30.7,27.393V15.914A1.439,1.439,0,0,0,29.262,14.479Z" transform="translate(-2 -3)" />
    </g>
  </g>
</svg>