<svg xmlns="http://www.w3.org/2000/svg" width="31.567" height="22.958" viewBox="0 0 31.567 22.958">
  <path id="Path_5273" data-name="Path 5273" d="M27.545,9.739H23.958V6.87A2.878,2.878,0,0,0,21.088,4H3.87A2.878,2.878,0,0,0,1,6.87V19.784a2.878,2.878,0,0,0,2.87,2.87,4.3,4.3,0,0,0,8.609,0h8.609a4.3,4.3,0,0,0,8.609,0h1.435a1.439,1.439,0,0,0,1.435-1.435V16.44a2.887,2.887,0,0,0-.574-1.722l-3.3-4.405a1.455,1.455,0,0,0-1.148-.574ZM8.174,24.088a1.435,1.435,0,1,1,1.435-1.435A1.439,1.439,0,0,1,8.174,24.088Zm19.371-12.2,2.812,3.587h-6.4V11.892Zm-2.152,12.2a1.435,1.435,0,1,1,1.435-1.435A1.439,1.439,0,0,1,25.393,24.088Z" transform="translate(-1 -4)" />
</svg>