<svg id="Group_3009" data-name="Group 3009" xmlns="http://www.w3.org/2000/svg" width="25.225" height="25.236" viewBox="0 0 25.225 25.236">
  <g id="Group_3008" data-name="Group 3008" transform="translate(0 0)">
    <path id="Path_5274" data-name="Path 5274" d="M19.83,17.8A9.294,9.294,0,0,0,14.277,3.189,9.336,9.336,0,0,0,9.571,21.239a9.22,9.22,0,0,0,8.236-1.406l7.978,7.978a1.429,1.429,0,0,0,2.023,0h0a1.429,1.429,0,0,0,0-2.023Zm-7.5.99a6.457,6.457,0,1,1,6.457-6.457A6.448,6.448,0,0,1,12.326,18.786Z" transform="translate(-3.002 -2.995)" />
    <path id="Path_5275" data-name="Path 5275" d="M12.047,9.5,10.913,6,9.78,9.5H6.25l2.884,2.281-1.1,3.544,2.884-2.2,2.884,2.2-1.1-3.544L15.577,9.5Z" transform="translate(-1.59 -1.688)" />
  </g>
</svg>