<svg xmlns="http://www.w3.org/2000/svg" width="28.723" height="28.754" viewBox="0 0 28.723 28.754">
  <path id="Path_5263" data-name="Path 5263" d="M25.415,7.283a1.41,1.41,0,0,0-.1,1.894,11.27,11.27,0,0,1,2.2,9.929,11.487,11.487,0,1,1-12.6-14.133v2.9a8.6,8.6,0,1,0,8.566,3.659,1.419,1.419,0,0,0-2.152-.158l-.014.014a1.451,1.451,0,0,0-.158,1.822,5.749,5.749,0,1,1-6.242-2.4v3.071a2.841,2.841,0,0,0-1.435,2.468,2.87,2.87,0,0,0,5.739,0,2.823,2.823,0,0,0-1.435-2.468V3.022A1.023,1.023,0,0,0,16.763,2a14.357,14.357,0,1,0,13.617,17.4A14.134,14.134,0,0,0,27.553,7.4a1.434,1.434,0,0,0-2.138-.115Z" transform="translate(-2.004 -1.993)" />
</svg>