<svg xmlns="http://www.w3.org/2000/svg" width="28.697" height="27.262" viewBox="0 0 28.697 27.262">
  <path id="Path_5281" data-name="Path 5281" d="M27.828,8.739H22.088V5.87A2.891,2.891,0,0,0,19.218,3H13.479a2.878,2.878,0,0,0-2.87,2.87v2.87H4.87A2.878,2.878,0,0,0,2,11.609V27.393a2.878,2.878,0,0,0,2.87,2.87H27.828a2.878,2.878,0,0,0,2.87-2.87V11.609A2.878,2.878,0,0,0,27.828,8.739ZM13.479,5.87h5.739v2.87H13.479ZM14.2,24.523a1,1,0,0,1,0-1.435L17.784,19.5,14.2,15.914a1.015,1.015,0,0,1,1.435-1.435L20.151,19a.71.71,0,0,1,0,1.019l-4.52,4.505A1,1,0,0,1,14.2,24.523Z" transform="translate(-2 -3)" />
</svg>