<svg id="Group_3011" data-name="Group 3011" xmlns="http://www.w3.org/2000/svg" width="31.436" height="30.121" viewBox="0 0 31.436 30.121">
  <path id="Path_5278" data-name="Path 5278" d="M16.763,6.739a10.047,10.047,0,0,0-9.915,8.423,1.435,1.435,0,0,0,2.841.4,7.179,7.179,0,0,1,14.148,0,1.428,1.428,0,0,0,2.827-.4A10.021,10.021,0,0,0,16.763,6.739ZM18.2,20.069a3.614,3.614,0,0,0,2.023-4.29,3.525,3.525,0,0,0-2.411-2.439,3.593,3.593,0,0,0-2.482,6.73V24.8L11.44,28.679A1.431,1.431,0,1,0,13.463,30.7l3.3-3.3,3.3,3.3a1.431,1.431,0,1,0,2.023-2.023L18.2,24.8ZM16.763,1A15.8,15.8,0,0,0,1.052,15.205a1.449,1.449,0,0,0,1.435,1.578,1.418,1.418,0,0,0,1.421-1.263,12.919,12.919,0,0,1,25.713,0,1.418,1.418,0,0,0,1.421,1.263,1.44,1.44,0,0,0,1.435-1.578A15.8,15.8,0,0,0,16.763,1Z" transform="translate(-1.046 -1)" />
</svg>