<svg xmlns="http://www.w3.org/2000/svg" width="29.547" height="19.503" viewBox="0 0 29.547 19.503">
  <path id="playlist_add_check_black_24dp" d="M17.784,11.739H3.435a1.435,1.435,0,1,0,0,2.87H17.784a1.435,1.435,0,1,0,0-2.87Zm0-5.739H3.435a1.435,1.435,0,1,0,0,2.87H17.784a1.435,1.435,0,0,0,0-2.87ZM3.435,20.349h8.609a1.435,1.435,0,1,0,0-2.87H3.435a1.435,1.435,0,1,0,0,2.87ZM31,14.911l.129.129a1.429,1.429,0,0,1,0,2.023l-8.007,8.021a1.429,1.429,0,0,1-2.023,0L16.664,20.65a1.429,1.429,0,0,1,0-2.023l.129-.129a1.429,1.429,0,0,1,2.023,0l3.3,3.3,6.859-6.873A1.416,1.416,0,0,1,31,14.911Z" transform="translate(-2 -6)" />
</svg>