<svg xmlns="http://www.w3.org/2000/svg" width="13.789" height="19.304" viewBox="0 0 13.789 19.304">
  <g id="Group_3688" data-name="Group 3688" transform="translate(-11351.306 -2238.348)">
    <path id="Path_1193" data-name="Path 1193" d="M-1319.737,944.111c-.256,0-.478,0-.7,0a.637.637,0,0,1-.673-.631.643.643,0,0,1,.633-.738c.4-.017.8-.011,1.2-.011h11.063c.093,0,.187,0,.279.01a.655.655,0,0,1,.6.772.629.629,0,0,1-.658.6h-.718v.237c0,4.01-.012,8.021.008,12.031a1.468,1.468,0,0,1-1.516,1.519c-2.676-.026-5.352-.01-8.028-.01a1.379,1.379,0,0,1-1.487-1.47q-.005-3.508,0-7.016,0-2.55,0-5.1Zm8.267,6.211h0q0-2.011,0-4.022a.662.662,0,0,0-.689-.645.673.673,0,0,0-.686.651q0,3.979,0,7.958a.687.687,0,0,0,.694.691.726.726,0,0,0,.692-.7C-1311.485,952.947-1311.47,951.634-1311.47,950.322Zm-4.132-.027h0q0-1.989,0-3.979a.652.652,0,0,0-.047-.27.711.711,0,0,0-.793-.378.746.746,0,0,0-.541.685c.012,2.646.007,5.291.008,7.937a.678.678,0,0,0,.675.663.674.674,0,0,0,.7-.658Q-1315.6,952.3-1315.6,950.3Z" transform="translate(12672.428 1299.753)" />
    <path id="Path_1194" data-name="Path 1194" d="M-1311.71,848.081h3.111c.129,0,.259,0,.387.009a.648.648,0,0,1,.635.756.629.629,0,0,1-.684.615h-12.376a.675.675,0,0,1-.674-.949.625.625,0,0,1,.633-.425c.8,0,1.607,0,2.41-.006h1.045c0-.2,0-.4,0-.6a.706.706,0,0,1,.775-.777q1.98-.009,3.96,0a.712.712,0,0,1,.776.778C-1311.709,847.675-1311.71,847.867-1311.71,848.081Z" transform="translate(12672.67 1391.647)" />
  </g>
</svg>