<svg xmlns="http://www.w3.org/2000/svg" width="34.492" height="34.492" viewBox="0 0 34.492 34.492">
  <g id="Group_3476" data-name="Group 3476" transform="translate(-1717.714 -1448.388)">
    <path id="Path_4522" data-name="Path 4522" d="M533.635-388.92a1.689,1.689,0,0,1,0,2.925l-8.182,4.724-8.182,4.724a1.688,1.688,0,0,1-2.533-1.462v-18.9a1.688,1.688,0,0,1,2.533-1.462l8.182,4.724Z" transform="translate(1212.825 1853.091)" fill="#fff"/>
    <path id="Path_4523" data-name="Path 4523" d="M474.871-399.517a17.266,17.266,0,0,1-17.246-17.246,17.266,17.266,0,0,1,17.246-17.246,17.266,17.266,0,0,1,17.246,17.246A17.266,17.266,0,0,1,474.871-399.517Zm0-32.767a15.539,15.539,0,0,0-15.521,15.521,15.539,15.539,0,0,0,15.521,15.521,15.539,15.539,0,0,0,15.521-15.521A15.539,15.539,0,0,0,474.871-432.284Z" transform="translate(1260.089 1882.396)" fill="#fff"/>
  </g>
</svg>