<svg xmlns="http://www.w3.org/2000/svg" width="18.132" height="15" viewBox="0 0 18.132 15">
  <path id="Path_1427" data-name="Path 1427" d="M14,11a1,1,0,0,1-1,1H4a1,1,0,0,1,0-2h9A1,1,0,0,1,14,11ZM3,7A1,1,0,0,0,4,8h9a1,1,0,0,0,0-2H4A1,1,0,0,0,3,7Zm7,8a1,1,0,0,0-1-1H4a1,1,0,0,0,0,2H9A1,1,0,0,0,10,15Zm8.01-2.13.71-.71a1,1,0,0,1,1.41,0l.71.71a1,1,0,0,1,0,1.41l-.71.71Zm-.71.71-5.16,5.16a.483.483,0,0,0-.14.35V20.5a.5.5,0,0,0,.5.5h1.41a.469.469,0,0,0,.35-.15l5.16-5.16Z" transform="translate(-3 -6)"/>
</svg>