<svg xmlns="http://www.w3.org/2000/svg" width="11.176" height="13.175" viewBox="0 0 11.176 13.175">
  <g id="Group_3437" data-name="Group 3437" transform="translate(-6.407 -5.407)">
    <g id="Group_3435" data-name="Group 3435">
      <path id="Path_5253" data-name="Path 5253" d="M17.29,5.71h0a1,1,0,0,0-1.41,0L12,9.58,8.11,5.7a1,1,0,0,0-1.41,0h0a1,1,0,0,0,0,1.41l4.59,4.59a1,1,0,0,0,1.41,0l4.59-4.59A.984.984,0,0,0,17.29,5.71Z" fill="#323338" />
      <path id="Path_5254" data-name="Path 5254" d="M17.29,12.3h0a1,1,0,0,0-1.41,0L12,16.17,8.12,12.29a1,1,0,0,0-1.41,0h0a1,1,0,0,0,0,1.41l4.59,4.59a1,1,0,0,0,1.41,0L17.3,13.7A.993.993,0,0,0,17.29,12.3Z" fill="#323338" />
    </g>
  </g>
</svg>